<?xml version="1.0" encoding="UTF-8"?>
<svg version="1.1" xmlns="http://www.w3.org/2000/svg" width="545" height="443">
<path d="M0 0 C179.85 0 359.7 0 545 0 C545 146.19 545 292.38 545 443 C365.15 443 185.3 443 0 443 C0 296.81 0 150.62 0 0 Z " fill="#406870" transform="translate(0,0)"/>
<path d="M0 0 C179.85 0 359.7 0 545 0 C545 146.19 545 292.38 545 443 C503.42 443 461.84 443 419 443 C419 440.69 419 438.38 419 436 C419.99 435.67 420.98 435.34 422 435 C422.0292067 431.45835085 422.04686814 427.91673303 422.0625 424.375 C422.07087891 423.37597656 422.07925781 422.37695312 422.08789062 421.34765625 C422.1041087 416.44979725 422.04318537 411.81343801 421 407 C418.03 407 415.06 407 412 407 C412 406.34 412 405.68 412 405 C412.99 404.67 413.98 404.34 415 404 C416.01187895 402.34051852 417.0126546 400.67419438 418 399 C418.66 399 419.32 399 420 399 C420.27239502 398.40848145 420.54479004 397.81696289 420.82543945 397.20751953 C421.97111432 395.05428899 423.16679797 393.48594927 424.79296875 391.6796875 C425.33800049 391.06617432 425.88303223 390.45266113 426.44458008 389.82055664 C427.01974365 389.17852295 427.59490723 388.53648926 428.1875 387.875 C433.23516053 382.15970744 437.85170826 376.41099633 442 370 C438.36827367 361.45476159 434.53238978 355.50341859 427 350 C426.4121875 349.55785156 425.824375 349.11570312 425.21875 348.66015625 C420.46095092 345.50699224 415.53722177 345.22282583 410 345 C409.97287934 343.56260487 409.95354933 342.12506137 409.9375 340.6875 C409.92589844 339.88699219 409.91429687 339.08648437 409.90234375 338.26171875 C410 336 410 336 411 333 C411.66 333 412.32 333 413 333 C413.08378906 332.14792969 413.16757812 331.29585938 413.25390625 330.41796875 C414.111087 326.49109361 415.74352589 323.60947333 417.9375 320.3125 C418.33646484 319.705271 418.73542969 319.09804199 419.14648438 318.47241211 C425.11172634 309.62311945 432.59975869 300.35850332 442 295 C443.32 295 444.64 295 446 295 C446 294.34 446 293.68 446 293 C449.01490557 291.99503148 451.04181692 291.89664697 454.1875 291.9375 C455.08855469 291.94652344 455.98960937 291.95554687 456.91796875 291.96484375 C457.94857422 291.98224609 457.94857422 291.98224609 459 292 C459.25136719 291.19046875 459.50273437 290.3809375 459.76171875 289.546875 C460.67642183 286.92684219 461.64309828 284.47774657 462.76953125 281.953125 C480.27939584 242.08787177 479.05110575 194.05049862 463.36035156 153.77026367 C457.18709677 138.70984616 448.89385572 124.88695493 439 112 C438.01966797 110.70255859 438.01966797 110.70255859 437.01953125 109.37890625 C429.32280789 99.46044831 420.76916192 89.91152841 411 82 C409.88928158 81.07687265 408.77860888 80.15369029 407.66796875 79.23046875 C375.68124169 52.88128138 336.93873749 36.7966354 296 31 C295.27619141 30.896875 294.55238281 30.79375 293.80664062 30.6875 C271.60644868 28.01047427 246.86091894 28.44090129 225 33 C224.00935547 33.20399414 223.01871094 33.40798828 221.99804688 33.61816406 C207.60799979 36.66374704 193.70506249 40.66439532 180 46 C179.32243652 46.2582959 178.64487305 46.5165918 177.94677734 46.78271484 C159.05356654 54.08758925 141.68488467 65.28557895 126 78 C125.38688965 78.4935498 124.7737793 78.98709961 124.14208984 79.49560547 C87.30813496 109.38489603 64.18460296 152.56436499 58.40625 199.5 C54.85123793 234.02252955 62.79995953 269.69684348 79.03271484 300.16210938 C80.7439713 303.41358303 82.36556517 306.70938619 84 310 C84.4640625 309.566875 84.928125 309.13375 85.40625 308.6875 C90.45252091 304.62035628 94.75643139 303.41976727 101.1875 303.4375 C101.86425781 303.43556641 102.54101562 303.43363281 103.23828125 303.43164062 C108.53669262 303.60305982 112.71806538 304.88609382 116.64453125 308.5234375 C117.09183594 309.01070313 117.53914063 309.49796875 118 310 C119.21764689 310.89096114 120.44779219 311.76499986 121.6875 312.625 C132.58359628 320.77718882 142.99908299 334.86757829 147 348 C147.20058459 349.68599476 147.38710523 351.37369889 147.5625 353.0625 C148.85986476 361.56744676 154.90290151 368.33643653 160 375 C160.3909082 375.55727783 160.78181641 376.11455566 161.18457031 376.6887207 C164.50599201 381.16957236 168.0613272 382.72487681 173.125 384.5625 C174.54522285 385.1029737 175.96447939 385.6459927 177.3828125 386.19140625 C178.12684326 386.47274414 178.87087402 386.75408203 179.63745117 387.04394531 C182.19042112 388.07705788 184.64119856 389.25963481 187.12109375 390.45703125 C193.82662547 393.5368028 200.79872357 395.34292003 207.9375 397.125 C208.61542603 397.29742218 209.29335205 397.46984436 209.99182129 397.64749146 C221.22825024 400.49823223 232.4608775 402.79297355 244 404 C245.27810547 404.1381311 245.27810547 404.1381311 246.58203125 404.27905273 C263.72245862 405.9994957 280.96100759 405.37987238 298 403 C298.72815918 402.90348145 299.45631836 402.80696289 300.20654297 402.70751953 C320.31884177 399.98383931 341.1433557 394.85040142 358.98583984 384.89160156 C361 384 361 384 365 384 C365 383.34 365 382.68 365 382 C366.93370231 380.99267601 368.87210306 379.99436712 370.8125 379 C371.89144531 378.443125 372.97039062 377.88625 374.08203125 377.3125 C377 376 377 376 380 376 C380 375.34 380 374.68 380 374 C382.046875 372.4921875 382.046875 372.4921875 384.75 370.875 C385.63171875 370.33617187 386.5134375 369.79734375 387.421875 369.2421875 C390 368 390 368 394 368 C392.1682243 372.71028037 392.1682243 372.71028037 390.875 374.9375 C389.70966161 377.68436906 389.86590958 380.05001069 390 383 C390.66 383.33 391.32 383.66 392 384 C391.49475193 389.59381792 389.99890156 393.63076331 387.375 398.5625 C387.01889648 399.25432373 386.66279297 399.94614746 386.29589844 400.65893555 C385.20553179 402.77702355 384.10341498 404.88868657 383 407 C376.58546186 419.37672883 372.27767013 428.94562859 371 443 C248.57 443 126.14 443 0 443 C0 296.81 0 150.62 0 0 Z " fill="#4B797E" transform="translate(0,0)"/>
<path d="M0 0 C-1.8317757 4.71028037 -1.8317757 4.71028037 -3.125 6.9375 C-4.29033839 9.68436906 -4.13409042 12.05001069 -4 15 C-3.01 15.495 -3.01 15.495 -2 16 C-2.50524807 21.59381792 -4.00109844 25.63076331 -6.625 30.5625 C-6.98110352 31.25432373 -7.33720703 31.94614746 -7.70410156 32.65893555 C-8.79446821 34.77702355 -9.89658502 36.88868657 -11 39 C-17.41453814 51.37672883 -21.72232987 60.94562859 -23 75 C-84.71 75 -146.42 75 -210 75 C-211.485 67.575 -211.485 67.575 -213 60 C-214.52586033 56.00676464 -214.52586033 56.00676464 -216.4375 52.9375 C-217.01371094 51.93589844 -217.58992187 50.93429687 -218.18359375 49.90234375 C-219.45342199 47.87334937 -220.79065718 45.88569858 -222.17578125 43.93359375 C-223.96993735 41.04834486 -224.54815965 39.45536577 -224.75 36.125 C-224.80671875 35.34382813 -224.8634375 34.56265625 -224.921875 33.7578125 C-224.96054688 32.88769531 -224.96054688 32.88769531 -225 32 C-225.66 32 -226.32 32 -227 32 C-227 31.01 -227 30.02 -227 29 C-227.66 29 -228.32 29 -229 29 C-228.85930804 26.87465341 -228.71229079 24.74972471 -228.5625 22.625 C-228.48128906 21.44164062 -228.40007812 20.25828125 -228.31640625 19.0390625 C-228 16 -228 16 -227 14 C-224.72774376 14.89234354 -222.45725309 15.78882719 -220.1875 16.6875 C-219.25260742 17.05391602 -219.25260742 17.05391602 -218.29882812 17.42773438 C-215.3418105 18.60162579 -212.42565572 19.79464315 -209.55883789 21.17773438 C-201.96061834 24.84142546 -194.22814108 27.08657989 -186.0625 29.125 C-185.38457397 29.29742218 -184.70664795 29.46984436 -184.00817871 29.64749146 C-172.77174976 32.49823223 -161.5391225 34.79297355 -150 36 C-148.72189453 36.1381311 -148.72189453 36.1381311 -147.41796875 36.27905273 C-130.27754138 37.9994957 -113.03899241 37.37987238 -96 35 C-95.27184082 34.90348145 -94.54368164 34.80696289 -93.79345703 34.70751953 C-73.68115823 31.98383931 -52.8566443 26.85040142 -35.01416016 16.89160156 C-33 16 -33 16 -29 16 C-29 15.34 -29 14.68 -29 14 C-27.06629769 12.99267601 -25.12789694 11.99436712 -23.1875 11 C-22.10855469 10.443125 -21.02960938 9.88625 -19.91796875 9.3125 C-17 8 -17 8 -14 8 C-14 7.34 -14 6.68 -14 6 C-11.953125 4.4921875 -11.953125 4.4921875 -9.25 2.875 C-7.92742187 2.06675781 -7.92742187 2.06675781 -6.578125 1.2421875 C-4 0 -4 0 0 0 Z " fill="#4B797E" transform="translate(394,368)"/>
<path d="M0 0 C0.86843033 -0.00960754 1.73686066 -0.01921509 2.63160706 -0.02911377 C4.03780556 -0.03548859 4.03780556 -0.03548859 5.47241211 -0.04199219 C6.44327255 -0.04769226 7.414133 -0.05339233 8.41441345 -0.05926514 C10.4730419 -0.06871667 12.53168549 -0.07524973 14.59033203 -0.07910156 C17.71341107 -0.08875485 20.83581713 -0.11975515 23.95874023 -0.15136719 C25.96329364 -0.15790285 27.96785173 -0.1631511 29.97241211 -0.16699219 C30.89570816 -0.17933899 31.81900421 -0.19168579 32.77027893 -0.20440674 C39.32919437 -0.18230224 47.13348359 0.18695438 52.38002014 4.57781982 C57.87750977 10.93251046 56.93926566 17.84175271 56.99975586 25.78613281 C57.04326172 27.65591797 57.04326172 27.65591797 57.08764648 29.56347656 C57.13654878 36.68816556 56.97277704 43.18328376 52.68725586 49.16113281 C44.02969584 55.79885952 31.70197663 54.34332319 21.37475586 54.34863281 C20.13274414 54.36087891 18.89073242 54.373125 17.61108398 54.38574219 C-4.05936445 54.41983309 -4.05936445 54.41983309 -11.31274414 49.16113281 C-17.99221964 40.44971331 -17.11619746 28.58679439 -16.31274414 18.16113281 C-15.43775323 12.38322212 -14.22628574 6.94081777 -9.85571289 2.87597656 C-6.48916988 0.60575785 -3.96753218 0.0355238 0 0 Z " fill="#E11A17" transform="translate(291.312744140625,266.8388671875)"/>
<path d="M0 0 C2.32468019 1.42849913 3.87509239 2.67341656 5.6953125 4.65625 C6.91295939 5.54721114 8.14310469 6.42124986 9.3828125 7.28125 C20.08159508 15.28581361 31.03099026 29.61923959 34.6953125 42.65625 C34.96953294 45.42169341 34.89802585 47.86894145 34.6953125 50.65625 C33.89609375 50.74519531 33.096875 50.83414063 32.2734375 50.92578125 C20.8846043 52.78381859 14.47461695 58.40639034 7.61328125 67.37890625 C6.22169107 69.43533108 4.91293736 71.49336374 3.6953125 73.65625 C-4.02174185 73.32786471 -9.17514703 69.47283642 -14.8046875 64.40625 C-15.6296875 63.49875 -16.4546875 62.59125 -17.3046875 61.65625 C-17.95953125 60.97046875 -18.614375 60.2846875 -19.2890625 59.578125 C-28.35553933 49.88637391 -38.04323759 38.93064239 -38.6796875 25.09375 C-38.26052154 15.79148996 -33.90514098 9.98018175 -27.3046875 3.65625 C-26.73105469 3.10195313 -26.15742187 2.54765625 -25.56640625 1.9765625 C-18.93320922 -3.2299824 -7.57328274 -3.07944357 0 0 Z " fill="#0F1E2F" transform="translate(112.3046875,305.34375)"/>
<path d="M0 0 C1.58706274 0.91708281 3.15180752 1.87427145 4.6875 2.875 C5.35910156 3.2978125 6.03070313 3.720625 6.72265625 4.15625 C12.21223519 8.165624 14.23485581 13.36783364 15.6875 19.875 C17.08612039 29.191028 14.81391914 35.1748231 9.6875 42.875 C8.99914062 43.93976563 8.31078125 45.00453125 7.6015625 46.1015625 C-0.58195498 58.50513268 -9.47227993 68.79880582 -23.3125 74.875 C-23.9725 74.875 -24.6325 74.875 -25.3125 74.875 C-25.663125 73.72 -26.01375 72.565 -26.375 71.375 C-29.8869952 62.19849642 -37.56614342 55.9741099 -46.3125 51.875 C-49.67893481 51.1209186 -52.86689502 50.82268062 -56.3125 50.875 C-56.33962066 49.43760487 -56.35895067 48.00006137 -56.375 46.5625 C-56.38660156 45.76199219 -56.39820313 44.96148437 -56.41015625 44.13671875 C-56.3125 41.875 -56.3125 41.875 -55.3125 38.875 C-54.6525 38.875 -53.9925 38.875 -53.3125 38.875 C-53.22871094 38.02292969 -53.14492188 37.17085938 -53.05859375 36.29296875 C-52.201413 32.36609361 -50.56897411 29.48447333 -48.375 26.1875 C-47.97603516 25.580271 -47.57707031 24.97304199 -47.16601562 24.34741211 C-41.20077366 15.49811945 -33.71274131 6.23350332 -24.3125 0.875 C-22.9925 0.875 -21.6725 0.875 -20.3125 0.875 C-20.3125 0.215 -20.3125 -0.445 -20.3125 -1.125 C-13.58060882 -3.36896373 -6.40279585 -3.06391458 0 0 Z " fill="#0F1E2F" transform="translate(466.3125,294.125)"/>
<path d="M0 0 C0.33 0 0.66 0 1 0 C1.05929688 0.99257813 1.11859375 1.98515625 1.1796875 3.0078125 C1.86943616 7.78798699 4.32802768 11.04341096 7.125 14.875 C7.61911377 15.57681396 8.11322754 16.27862793 8.62231445 17.00170898 C11.33389698 20.82195288 14.177115 24.47105507 17.1875 28.0625 C19.48364145 30.95190287 19.98239652 31.8845994 20.5625 35.6875 C20.00620863 38.96343809 19.20735955 41.90614117 18 45 C18.66 45 19.32 45 20 45 C20 45.99 20 46.98 20 48 C20.66 48 21.32 48 22 48 C22.17015625 48.73605469 22.3403125 49.47210938 22.515625 50.23046875 C22.75796875 51.20628906 23.0003125 52.18210937 23.25 53.1875 C23.59804687 54.63189453 23.59804687 54.63189453 23.953125 56.10546875 C25.14004414 59.38721159 26.79044258 61.3143501 29 64 C30.32186672 66.34542398 31.53100148 68.64115995 32.6875 71.0625 C32.99494141 71.65482422 33.30238281 72.24714844 33.61914062 72.85742188 C36.41939759 78.70916235 36.72018587 84.58297379 37 91 C30.23743488 91.10138675 23.47506561 91.17145971 16.71191406 91.21972656 C14.41105831 91.23984688 12.11025371 91.26714634 9.80957031 91.30175781 C6.50312683 91.35025612 3.19735915 91.37296478 -0.109375 91.390625 C-1.13867126 91.41127014 -2.16796753 91.43191528 -3.22845459 91.45318604 C-10.30727557 91.45541222 -10.30727557 91.45541222 -13.6496582 89.25805664 C-15.14894874 86.75092625 -15.5030571 85.38297542 -15.49609375 82.48046875 C-15.49673828 81.62259766 -15.49738281 80.76472656 -15.49804688 79.88085938 C-15.47806641 78.99205078 -15.45808594 78.10324219 -15.4375 77.1875 C-15.44458984 76.31029297 -15.45167969 75.43308594 -15.45898438 74.52929688 C-15.40465529 68.94175995 -14.55774056 64.9730075 -12 60 C-10.02 60 -8.04 60 -6 60 C-6.4125 59.53851563 -6.825 59.07703125 -7.25 58.6015625 C-10.65618636 54.75439666 -13.94286109 50.84764573 -17.125 46.8125 C-19.26993372 44.09917959 -21.36152111 41.63847889 -23.8125 39.1875 C-26.06097641 36.93902359 -27.371702 34.71383 -29 32 C-30.62836738 30.2958946 -32.28769752 28.61974559 -34 27 C-33.01 26.67 -32.02 26.34 -31 26 C-29.3410772 23.91595508 -29.3410772 23.91595508 -27.75 21.375 C-24.57991364 16.69024236 -21.18876666 12.78681431 -17 9 C-16.360625 8.401875 -15.72125 7.80375 -15.0625 7.1875 C-10.49842245 4.55969777 -5.22613205 3.67336675 0 4 C0 2.68 0 1.36 0 0 Z " fill="#505464" transform="translate(147,352)"/>
<path d="M0 0 C1.28557549 -0.00287018 1.28557549 -0.00287018 2.59712219 -0.00579834 C4.40841974 -0.00715654 6.21972714 -0.0034856 8.03100586 0.00488281 C10.77415441 0.01552173 13.51663823 0.00500931 16.25976562 -0.0078125 C40.47947992 -0.02673383 40.47947992 -0.02673383 46.11328125 5.265625 C49.56719297 12.26780117 49.63091214 19.54691246 49.61328125 27.203125 C49.64164062 28.31880859 49.67 29.43449219 49.69921875 30.58398438 C49.71588767 37.69744479 49.13032854 44.80609102 44.11328125 50.265625 C38.14199378 53.17984769 33.03496808 53.71107527 26.4609375 53.6640625 C25.56136826 53.66693268 24.66179901 53.66980286 23.73497009 53.67276001 C21.8432451 53.6747903 19.95149861 53.66933336 18.05981445 53.65673828 C15.18717799 53.64068867 12.31595231 53.65661261 9.44335938 53.67578125 C7.59504902 53.67379827 5.74673953 53.66995345 3.8984375 53.6640625 C3.05128677 53.67013519 2.20413605 53.67620789 1.33131409 53.6824646 C-4.41062172 53.61578914 -9.6738636 52.79734775 -14.88671875 50.265625 C-20.79066207 43.75614903 -21.25672989 35.28217739 -21.19921875 26.890625 C-21.1950293 26.05644043 -21.19083984 25.22225586 -21.18652344 24.36279297 C-21.04896163 16.85982095 -20.03234398 10.69862536 -16.01171875 4.265625 C-11.25914143 -0.20738895 -6.17320969 -0.03056101 0 0 Z " fill="#EBECE4" transform="translate(210.88671875,266.734375)"/>
<path d="M0 0 C3.58072917 0.06510417 7.16145833 0.13020833 10.7421875 0.1953125 C10.7421875 8.4453125 10.7421875 16.6953125 10.7421875 25.1953125 C13.3821875 23.8753125 16.0221875 22.5553125 18.7421875 21.1953125 C22.71128764 20.24173774 26.13572507 20.31595299 29.76171875 22.30078125 C33.99280782 25.62329962 36.02897245 29.05566734 37.7421875 34.1953125 C38.1340625 35.2059375 38.5259375 36.2165625 38.9296875 37.2578125 C41.30220885 46.18492673 40.65559564 56.81975265 36.7421875 65.1953125 C34.97606642 68.07762211 33.14152314 70.80266025 30.7421875 73.1953125 C30.0821875 73.1953125 29.4221875 73.1953125 28.7421875 73.1953125 C28.2471875 74.6803125 28.2471875 74.6803125 27.7421875 76.1953125 C17.307142 76.71322836 17.307142 76.71322836 12.3046875 74.6328125 C8.42504881 73.05077511 8.42504881 73.05077511 4.7421875 74.1953125 C4.2471875 75.1853125 4.2471875 75.1853125 3.7421875 76.1953125 C0.7721875 76.1953125 -2.1978125 76.1953125 -5.2578125 76.1953125 C-5.30408991 66.58146832 -5.33965823 56.96766229 -5.36143684 47.35373116 C-5.37188784 42.88991495 -5.38607094 38.42617478 -5.40869141 33.96240234 C-5.43037302 29.65710576 -5.4423712 25.35188245 -5.44756699 21.04653549 C-5.45127119 19.40143556 -5.45850427 17.75633977 -5.46927261 16.1112709 C-5.48372549 13.81253546 -5.48579308 11.51410537 -5.48486328 9.21533203 C-5.4893045 7.9051712 -5.49374573 6.59501038 -5.49832153 5.24514771 C-5.15611452 0.90570568 -4.32713126 0.25942034 0 0 Z " fill="#E7EAE3" transform="translate(347.2578125,163.8046875)"/>
<path d="M0 0 C4.95 0 9.9 0 15 0 C15 24.42 15 48.84 15 74 C10.38 74 5.76 74 1 74 C1 72.68 1 71.36 1 70 C0.38253906 70.37253906 -0.23492187 70.74507813 -0.87109375 71.12890625 C-6.16991151 74.08882424 -9.97381847 75.74884649 -16.03515625 74.56640625 C-21.75169936 72.91849621 -23.96076924 69.98163116 -26.88671875 65.03515625 C-27.25410156 64.36355469 -27.62148437 63.69195312 -28 63 C-28.34675781 62.38455322 -28.69351563 61.76910645 -29.05078125 61.13500977 C-30.07044396 58.84155544 -30.27055013 57.29946137 -30.30078125 54.8046875 C-30.31044922 54.0111084 -30.32011719 53.2175293 -30.33007812 52.39990234 C-30.24433896 40.08442458 -29.61550153 32.01344575 -20.83984375 22.71484375 C-18.00057391 20.06847547 -16.11152833 19.79803834 -12.3125 19.6875 C-11.48363281 19.65011719 -10.65476563 19.61273438 -9.80078125 19.57421875 C-7 20 -7 20 0 24 C0 16.08 0 8.16 0 0 Z " fill="#EAECE4" transform="translate(244,165)"/>
<path d="M0 0 C35.26704545 0 35.26704545 0 43.3125 7.375 C48.62570489 13.84621108 48.70681848 20.90964695 48 29 C46.83308226 33.70174154 44.30258483 37.48434518 41 41 C40.34 41 39.68 41 39 41 C39 41.66 39 42.32 39 43 C37.25093469 43.64836042 35.50070781 44.29358784 33.75 44.9375 C32.28820312 45.47697266 32.28820312 45.47697266 30.796875 46.02734375 C25.19700371 47.97478502 22.5162025 48 16 48 C16 55.92 16 63.84 16 72 C10.72 72 5.44 72 0 72 C0 48.24 0 24.48 0 0 Z " fill="#E8EBE4" transform="translate(112,168)"/>
<path d="M0 0 C6.34347166 2.6734938 10.64136403 6.69443762 13.37890625 13.0078125 C16.32267753 22.45009775 16.23453185 33.00161983 12 42 C9.13469278 47.32128484 5.02808272 51.66591277 -0.828125 53.60546875 C-6.6528392 54.66355532 -13.16341663 55.58082747 -18.48828125 52.61328125 C-20.51486002 50.85385976 -22.26672275 49.04646844 -24 47 C-24.763125 46.175 -25.52625 45.35 -26.3125 44.5 C-31.47408561 36.85320651 -31.88974855 30.14741486 -31 21 C-29.44798205 14.02907194 -26.62867055 7.60300169 -21 3 C-14.26400116 -1.04927565 -7.65420952 -1.09232773 0 0 Z " fill="#EAECE4" transform="translate(194,186)"/>
<path d="M0 0 C2.64 0 5.28 0 8 0 C8 0.66 8 1.32 8 2 C8.556875 2.2475 9.11375 2.495 9.6875 2.75 C15.80622019 6.05741632 19.91511816 10.38372719 21.9375 17.125 C22 20 22 20 20.5625 22.375 C20.046875 22.91125 19.53125 23.4475 19 24 C21.97 24 24.94 24 28 24 C30.25694584 29.44004874 30.33346081 34.39812413 30.3125 40.1875 C30.32861328 41.08919922 30.34472656 41.99089844 30.36132812 42.91992188 C30.36197266 43.78552734 30.36261719 44.65113281 30.36328125 45.54296875 C30.36626221 46.32696045 30.36924316 47.11095215 30.37231445 47.91870117 C30 50 30 50 28.53979492 51.34106445 C26.25161025 53.49032892 26.25161025 53.49032892 26 60 C10.16 60 -5.68 60 -22 60 C-22 51.22529296 -21.67496892 46.5423614 -18.375 39 C-18.01470703 38.13858398 -17.65441406 37.27716797 -17.28320312 36.38964844 C-14.57811851 30.03389653 -11.58086341 23.91385017 -8 18 C-7.01 18 -6.02 18 -5 18 C-5 17.01 -5 16.02 -5 15 C-2.07471973 15.62684577 0.41225673 16.48304705 3 18 C3.33 18.66 3.66 19.32 4 20 C4.99 20.33 5.98 20.66 7 21 C7.3403125 20.195625 7.3403125 20.195625 7.6875 19.375 C9.43382056 16.21499137 11.6402849 13.7323017 14 11 C12.61318429 7.65448581 11.20415702 6.13235259 8.125 4.25 C7.44695312 3.82203125 6.76890625 3.3940625 6.0703125 2.953125 C3.77428908 1.72120767 3.77428908 1.72120767 0 2 C0 1.34 0 0.68 0 0 Z " fill="#101F30" transform="translate(393,383)"/>
<path d="M0 0 C0.33 0 0.66 0 1 0 C1 1.65 1 3.3 1 5 C1.89138672 4.87818359 1.89138672 4.87818359 2.80078125 4.75390625 C10.88125765 4.13813122 15.82982337 6.96086916 22 12 C25.95898534 15.83667523 29.93914366 19.80172057 32 25 C32 26.32 32 27.64 32 29 C32.66 29.33 33.32 29.66 34 30 C29.14859549 36.68905773 24.12846569 43.16373899 18.75 49.4375 C18.25532227 50.01580566 17.76064453 50.59411133 17.25097656 51.18994141 C14.98142577 53.81387135 12.68385557 56.31481049 10.22265625 58.765625 C8.19424628 60.80472958 7.07410588 62.3635583 6 65 C5.34 64.67 4.68 64.34 4 64 C4.226875 63.46375 4.45375 62.9275 4.6875 62.375 C5.26208144 58.00818109 2.58638124 54.84924179 0.1875 51.375 C-2.27342005 48.70314395 -4.97881949 46.99123261 -8 45 C-8 44.34 -8 43.68 -8 43 C-10.64 43 -13.28 43 -16 43 C-15.33613281 43.23074219 -14.67226563 43.46148437 -13.98828125 43.69921875 C-8.5009982 45.7259087 -4.76134878 47.48638146 -1 52 C-2.40976705 55.03852705 -4.08870228 57.5939595 -6.125 60.25 C-6.66382813 60.95640625 -7.20265625 61.6628125 -7.7578125 62.390625 C-8.16773438 62.92171875 -8.57765625 63.4528125 -9 64 C-10.9375 63.625 -10.9375 63.625 -13 63 C-13.33 62.34 -13.66 61.68 -14 61 C-16.30965848 59.94647157 -18.6429774 58.94280904 -21 58 C-21 58.99 -21 59.98 -21 61 C-21.66 60.67 -22.32 60.34 -23 60 C-22.73445313 59.43152344 -22.46890625 58.86304688 -22.1953125 58.27734375 C-20.04115794 53.56807886 -18.28111201 49.01768869 -17 44 C-17.99 43.67 -18.98 43.34 -20 43 C-20.66609894 37.11460522 -18.58462531 34.00158125 -15.4375 29.3125 C-14.98439453 28.61350586 -14.53128906 27.91451172 -14.06445312 27.19433594 C-13.14988929 25.78497625 -12.22986316 24.37914494 -11.30419922 22.97705078 C-9.50723824 20.25301671 -7.7524638 17.50281311 -6 14.75 C-5.46375 13.91984375 -4.9275 13.0896875 -4.375 12.234375 C-1.83678055 8.10976839 -0.65940821 4.83566021 0 0 Z " fill="#505464" transform="translate(409,340)"/>
<path d="M0 0 C4.6960009 4.58419135 6.48142883 8.60601615 8 15 C8 19.62 8 24.24 8 29 C-1.24 29 -10.48 29 -20 29 C-18.58433822 33.87626313 -18.58433822 33.87626313 -16 38 C-9.28941008 38.68021574 -4.12279859 37.72124382 2 35 C6.89427012 40.13301501 6.89427012 40.13301501 7.3125 43.5625 C5.25309345 47.38711216 1.88458017 49.20923609 -2 51 C-9.74330051 52.97305253 -17.78842916 53.07045485 -24.99609375 49.3828125 C-30.86611118 45.33215719 -33.7971046 39.4087191 -35.52734375 32.6328125 C-37.26090818 22.97642882 -35.94472998 14.22971767 -30.64453125 5.859375 C-23.55216848 -3.19146864 -10.24762794 -5.23130657 0 0 Z " fill="#E9ECE4" transform="translate(428,188)"/>
<path d="M0 0 C5.28 0 10.56 0 16 0 C15.27027152 4.37837086 14.44956814 7.5430386 12.8828125 11.56640625 C9.65635823 20.46057 7.49426781 29.7295778 5.48266602 38.96264648 C4.36695288 43.93579569 2.82826456 48.12462785 1 53 C-4.94 53 -10.88 53 -17 53 C-17.99 49.535 -17.99 49.535 -19 46 C-19.79772942 43.40920902 -20.60274826 40.8209412 -21.4140625 38.234375 C-22 36 -22 36 -22 33 C-22.66 33 -23.32 33 -24 33 C-24.15855469 32.16339844 -24.31710937 31.32679688 -24.48046875 30.46484375 C-26.09889443 22.3905985 -28.26055833 14.83235041 -31.01171875 7.08203125 C-32 4 -32 4 -32 1 C-26.72 1 -21.44 1 -16 1 C-13.86583405 9.24229608 -11.81870873 17.44347278 -10.25 25.8125 C-10.12262451 26.48732422 -9.99524902 27.16214844 -9.86401367 27.85742188 C-9.36020598 30.6225388 -9 33.18209768 -9 36 C-8.34 36 -7.68 36 -7 36 C-7.04125 34.783125 -7.0825 33.56625 -7.125 32.3125 C-7.24710081 28.71052603 -6.35048371 26.31847483 -5 23 C-4.63904374 21.13372247 -4.32883662 19.25711213 -4.0625 17.375 C-3.13941652 11.42295769 -1.67419863 5.78359527 0 0 Z " fill="#E8EBE4" transform="translate(297,186)"/>
<path d="M0 0 C4.95 0 9.9 0 15 0 C15 17.49 15 34.98 15 53 C10.05 53 5.1 53 0 53 C0 35.51 0 18.02 0 0 Z " fill="#E6E9E2" transform="translate(318,186)"/>
<path d="M0 0 C0.33 1.32 0.66 2.64 1 4 C0.38511719 4.25394531 -0.22976562 4.50789063 -0.86328125 4.76953125 C-2.07564453 5.28580078 -2.07564453 5.28580078 -3.3125 5.8125 C-4.51326172 6.31716797 -4.51326172 6.31716797 -5.73828125 6.83203125 C-7.99818649 7.99906349 -9.43170179 9.00491899 -11 11 C-10.81931089 13.48823926 -10.81931089 13.48823926 -10 16 C-9.814375 16.763125 -9.62875 17.52625 -9.4375 18.3125 C-9.293125 18.869375 -9.14875 19.42625 -9 20 C-9.64743164 20.36714111 -10.29486328 20.73428223 -10.96191406 21.11254883 C-13.26311607 22.87065385 -13.26311607 22.87065385 -13.54589844 25.8190918 C-13.57731934 27.49225464 -13.57731934 27.49225464 -13.609375 29.19921875 C-13.64160156 30.40771484 -13.67382812 31.61621094 -13.70703125 32.86132812 C-13.72830078 34.7552832 -13.72830078 34.7552832 -13.75 36.6875 C-13.79447266 38.59885742 -13.79447266 38.59885742 -13.83984375 40.54882812 C-13.91064049 43.69928292 -13.96329047 46.8489934 -14 50 C-15.485 50.495 -15.485 50.495 -17 51 C-17 51.66 -17 52.32 -17 53 C-18.58179615 53.10867302 -20.16577153 53.18589827 -21.75 53.25 C-22.63171875 53.29640625 -23.5134375 53.3428125 -24.421875 53.390625 C-27 53 -27 53 -29.3046875 51.60546875 C-31.92427169 47.57951793 -31.50306599 43.75712954 -31.375 39.0625 C-31.37371094 38.16853516 -31.37242187 37.27457031 -31.37109375 36.35351562 C-31.23589165 26.23589165 -31.23589165 26.23589165 -28 23 C-25.66702567 22.95907063 -23.33294775 22.95758277 -21 23 C-21.254496 21.51793505 -21.52911762 20.03931385 -21.8125 18.5625 C-21.96332031 17.73878906 -22.11414063 16.91507812 -22.26953125 16.06640625 C-22.51058594 15.38449219 -22.75164062 14.70257813 -23 14 C-23.99 13.67 -24.98 13.34 -26 13 C-28.49451413 10.50548587 -28.98118639 9.32610265 -29.1875 5.75 C-29.125625 4.8425 -29.06375 3.935 -29 3 C-25.64749299 3.57575664 -24.06181371 4.59306263 -21.75 7.0625 C-21.22921875 7.61035156 -20.7084375 8.15820312 -20.171875 8.72265625 C-19.78515625 9.14417969 -19.3984375 9.56570313 -19 10 C-14.61776097 8.11623209 -11.7584952 5.00048463 -8.4140625 1.6796875 C-5.41617498 -0.40622129 -3.57605173 -0.31947436 0 0 Z " fill="#122030" transform="translate(163,390)"/>
<path d="M0 0 C9.01924726 4.1216063 17.62766817 14.81064288 23.04296875 22.93359375 C23.70296875 26.23359375 24.36296875 29.53359375 25.04296875 32.93359375 C13.82296875 32.93359375 2.60296875 32.93359375 -8.95703125 32.93359375 C-8.95703125 32.27359375 -8.95703125 31.61359375 -8.95703125 30.93359375 C-8.29703125 30.60359375 -7.63703125 30.27359375 -6.95703125 29.93359375 C-6.94768555 29.13139404 -6.93833984 28.32919434 -6.92871094 27.50268555 C-6.87509383 23.87485736 -6.79142827 20.24833083 -6.70703125 16.62109375 C-6.69285156 15.35845703 -6.67867187 14.09582031 -6.6640625 12.79492188 C-6.63183594 11.58642578 -6.59960938 10.37792969 -6.56640625 9.1328125 C-6.54545898 8.01737061 -6.52451172 6.90192871 -6.50292969 5.75268555 C-5.95703125 2.93359375 -5.95703125 2.93359375 -4.04125977 1.04199219 C-1.95703125 -0.06640625 -1.95703125 -0.06640625 0 0 Z " fill="#4A777C" transform="translate(154.95703125,410.06640625)"/>
<path d="M0 0 C1.875 0.25 1.875 0.25 4 1 C5.25 3.0625 5.25 3.0625 6 5 C5.67 5.33 5.34 5.66 5 6 C4.84011509 8.51880517 4.74065775 11.01342266 4.68359375 13.53515625 C4.66281265 14.28840683 4.64203156 15.04165741 4.62062073 15.81773376 C4.55504575 18.2325599 4.49620379 20.64749798 4.4375 23.0625 C4.3943223 24.69597529 4.35070827 26.3294391 4.30664062 27.96289062 C4.19853203 31.97514718 4.09951886 35.98748424 4 40 C-2.93 40 -9.86 40 -17 40 C-17 28.28391344 -12.55777041 21.6374519 -5 13 C-4.31550781 12.2059375 -3.63101562 11.411875 -2.92578125 10.59375 C-1.29686225 8.71702385 0.34391682 6.85274305 2 5 C1.34 3.35 0.68 1.7 0 0 Z " fill="#49757B" transform="translate(392,403)"/>
<path d="M0 0 C2.475 0.99 2.475 0.99 5 2 C5 2.66 5 3.32 5 4 C5.86625 4.268125 6.7325 4.53625 7.625 4.8125 C13.16016329 6.76005745 17.53174793 9.18884382 22 13 C20.51621583 16.91179463 18.59329198 18.00372668 15 20 C13.82576373 20.84373041 12.65946595 21.69858419 11.5 22.5625 C7.77818293 25.24868102 4.68159208 27 0 27 C-0.91491538 23.87956616 -1.12871801 21.07866638 -1.1328125 17.83203125 C-1.13410156 16.85685547 -1.13539063 15.88167969 -1.13671875 14.87695312 C-1.13285156 13.86568359 -1.12898437 12.85441406 -1.125 11.8125 C-1.12886719 10.78962891 -1.13273438 9.76675781 -1.13671875 8.71289062 C-1.13542969 7.74158203 -1.13414062 6.77027344 -1.1328125 5.76953125 C-1.13168457 4.87854736 -1.13055664 3.98756348 -1.12939453 3.06958008 C-1 1 -1 1 0 0 Z " fill="#E61D19" transform="translate(216,280)"/>
<path d="M0 0 C2.17089844 1.18286133 2.17089844 1.18286133 4 3 C4.45410156 5.4519043 4.45410156 5.4519043 4.390625 8.32421875 C4.37773437 9.35224609 4.36484375 10.38027344 4.3515625 11.43945312 C4.31804687 12.51130859 4.28453125 13.58316406 4.25 14.6875 C4.23195312 15.77095703 4.21390625 16.85441406 4.1953125 17.97070312 C4.14813508 20.64802146 4.08232249 23.32356909 4 26 C0.45155225 27.4953325 -2.11765245 28.40866816 -6 28 C-9 26 -9 26 -10 23 C-10.12185361 20.58559827 -10.17546093 18.16744474 -10.1875 15.75 C-10.20167969 14.46609375 -10.21585938 13.1821875 -10.23046875 11.859375 C-9.98821964 7.80272895 -9.37520204 4.80231301 -8 1 C-5.19084526 -0.40457737 -3.11189466 -0.24895157 0 0 Z " fill="#4C7178" transform="translate(240,199)"/>
<path d="M0 0 C3.28179495 1.51467459 4.48628569 3.07622764 6.4375 6.125 C6.80568379 8.95450693 6.95533406 11.31589943 6.875 14.125 C6.88208984 14.82367188 6.88917969 15.52234375 6.89648438 16.2421875 C6.82693638 21.91302389 5.3964661 25.1660339 1.4375 29.125 C-1.0625 29 -1.0625 29 -3.5625 28.125 C-4.875 26.0625 -4.875 26.0625 -5.5625 24.125 C-6.2225 24.125 -6.8825 24.125 -7.5625 24.125 C-7.69780844 21.06101549 -7.7967407 18.00302874 -7.875 14.9375 C-7.91689453 14.07318359 -7.95878906 13.20886719 -8.00195312 12.31835938 C-8.08962273 7.74200596 -8.05606259 5.7746395 -5.203125 2.01953125 C-2.5625 0.125 -2.5625 0.125 0 0 Z " fill="#4C7178" transform="translate(186.5625,197.875)"/>
<path d="M0 0 C2.67277384 2.64377448 3.88804087 4.31149545 4.49609375 8.05078125 C4.23170732 22.76829268 4.23170732 22.76829268 0 27 C-3.375 27.375 -3.375 27.375 -7 27 C-10.83488846 22.66260891 -10.48314808 17.85277018 -10.4375 12.375 C-10.45748047 11.51648438 -10.47746094 10.65796875 -10.49804688 9.7734375 C-10.49318542 3.55077607 -10.49318542 3.55077607 -8.16015625 0.9453125 C-5.15345133 -0.37046072 -3.24534075 -0.54089012 0 0 Z " fill="#436A72" transform="translate(367,199)"/>
<path d="M0 0 C7.19448734 1.43889747 13.63120259 4.46593766 18.6875 9.875 C19.120625 10.57625 19.55375 11.2775 20 12 C17.21381285 14.98658577 14.47193668 17.0885674 10.9375 19.125 C8.23347297 20.69455554 5.6031974 22.26453507 3 24 C2.01 24 1.02 24 0 24 C0 16.08 0 8.16 0 0 Z " fill="#EFE3DB" transform="translate(303,282)"/>
<path d="M0 0 C11.68570144 0 11.68570144 0 15.859375 4.06640625 C17.70069598 7.18782367 17.15294626 9.79598816 16.46484375 13.2421875 C16.31144531 13.82226562 16.15804687 14.40234375 16 15 C14.35 15.66 12.7 16.32 11 17 C11 17.66 11 18.32 11 19 C7.05979642 20.26086514 4.52419701 20 0 20 C0 13.4 0 6.8 0 0 Z " fill="#4D7279" transform="translate(128,182)"/>
<path d="M0 0 C2.625 0.5625 2.625 0.5625 5 3.125 C11.29632576 13.03068448 15.78020406 22.65613172 15.625 34.5625 C14.305 34.5625 12.985 34.5625 11.625 34.5625 C10.26641442 32.13645431 9.55099822 30.19249112 9 27.4375 C7.13367118 20.54985792 1.21170343 14.92890148 -3.9375 10.25 C-6.375 7.5625 -6.375 7.5625 -6.4375 4.8125 C-4.9882503 1.74350063 -3.26102202 0.77234732 0 0 Z " fill="#152736" transform="translate(168.375,408.4375)"/>
<path d="M0 0 C2.390625 0.40625 2.390625 0.40625 5.078125 2.40625 C6.92757822 6.63357164 6.4198156 8.92191953 5.390625 13.40625 C2.79661994 16.00025506 1.55877884 15.73336615 -2.046875 15.78125 C-3.49900391 15.82378906 -3.49900391 15.82378906 -4.98046875 15.8671875 C-7.609375 15.40625 -7.609375 15.40625 -9.43359375 13.63671875 C-11.36164833 9.97918 -11.00066638 7.51480953 -10.609375 3.40625 C-7.81123825 -0.54353146 -4.49842661 -0.15783953 0 0 Z " fill="#E4E7E1" transform="translate(327.609375,164.59375)"/>
<path d="M0 0 C2.4375 1.6875 2.4375 1.6875 4 4 C3.67 5.65 3.34 7.3 3 9 C-1.29 9 -5.58 9 -10 9 C-10 4 -10 4 -8.375 1.6875 C-5.2935202 -0.50197249 -3.70758991 -0.61793165 0 0 Z " fill="#4A7077" transform="translate(418,198)"/>
<path d="M0 0 C-0.66 0 -1.32 0 -2 0 C-1.05066101 3.35433109 -0.10251165 6.69246505 1 10 C2.32303717 10.3721042 3.65737935 10.70630173 5 11 C6.4783226 13.95664519 6.06032783 16.74229737 6 20 C3.69 20 1.38 20 -1 20 C-1 19.67 -1 19.34 -1 19 C0.98 19 2.96 19 5 19 C4.34644531 18.25556641 4.34644531 18.25556641 3.6796875 17.49609375 C2.43691635 16.07847385 1.19614554 14.65909865 -0.04296875 13.23828125 C-1.28897191 11.81321177 -2.54095485 10.39333263 -3.80078125 8.98046875 C-4.34089844 8.36816406 -4.88101563 7.75585938 -5.4375 7.125 C-6.17806641 6.29355469 -6.17806641 6.29355469 -6.93359375 5.4453125 C-8 4 -8 4 -8 2 C-3.61016949 -1.20338983 -3.61016949 -1.20338983 0 0 Z " fill="#304451" transform="translate(136,393)"/>
<path d="M0 0 C0.66 0 1.32 0 2 0 C1.67 0.99 1.34 1.98 1 3 C0.85284801 4.62567079 0.75278133 6.25586857 0.68359375 7.88671875 C0.64169922 8.82451172 0.59980469 9.76230469 0.55664062 10.72851562 C0.49766602 12.19321289 0.49766602 12.19321289 0.4375 13.6875 C0.39431641 14.67556641 0.35113281 15.66363281 0.30664062 16.68164062 C0.20058346 19.12095546 0.09852286 21.56037113 0 24 C-2.07477826 20.88783261 -2.25522588 20.15939492 -2.265625 16.62109375 C-2.26820313 15.78255859 -2.27078125 14.94402344 -2.2734375 14.08007812 C-2.26570313 13.20802734 -2.25796875 12.33597656 -2.25 11.4375 C-2.25773437 10.56158203 -2.26546875 9.68566406 -2.2734375 8.78320312 C-2.27085937 7.94595703 -2.26828125 7.10871094 -2.265625 6.24609375 C-2.26336914 5.47966553 -2.26111328 4.7132373 -2.25878906 3.92358398 C-2 2 -2 2 0 0 Z " fill="#739093" transform="translate(359,200)"/>
<path d="M0 0 C2.92528027 0.62684577 5.41225673 1.48304705 8 3 C8.33 3.66 8.66 4.32 9 5 C9.99 5.66 10.98 6.32 12 7 C11.01 7.33 10.02 7.66 9 8 C8.34 7.34 7.68 6.68 7 6 C4.56747339 5.53837573 4.56747339 5.53837573 1.875 5.375 C0.96492188 5.30023438 0.05484375 5.22546875 -0.8828125 5.1484375 C-1.58148438 5.09945313 -2.28015625 5.05046875 -3 5 C-3 4.34 -3 3.68 -3 3 C-2.01 3 -1.02 3 0 3 C0 2.01 0 1.02 0 0 Z " fill="#233543" transform="translate(388,398)"/>
<path d="M0 0 C0.66 0.33 1.32 0.66 2 1 C-2.95 5.95 -7.9 10.9 -13 16 C-13.66 15.67 -14.32 15.34 -15 15 C-13.44221619 13.2456027 -11.87905295 11.49653989 -10.3125 9.75 C-9.44238281 8.77546875 -8.57226562 7.8009375 -7.67578125 6.796875 C-5.25206689 4.26347429 -2.7912151 2.11227089 0 0 Z " fill="#1B2F3E" transform="translate(438,298)"/>
<path d="M0 0 C1.875 0.25 1.875 0.25 4 1 C4.66 2.32 5.32 3.64 6 5 C2.7 8.3 -0.6 11.6 -4 15 C-4.66 14.67 -5.32 14.34 -6 14 C-3.36 11.03 -0.72 8.06 2 5 C1.34 3.35 0.68 1.7 0 0 Z " fill="#3D636B" transform="translate(392,403)"/>
<path d="M0 0 C2.64 0 5.28 0 8 0 C8 0.66 8 1.32 8 2 C8.8353125 2.3403125 8.8353125 2.3403125 9.6875 2.6875 C12.63246684 4.35896766 14.68156544 6.55276352 17 9 C16.34 9.66 15.68 10.32 15 11 C14.29875 10.071875 13.5975 9.14375 12.875 8.1875 C10.29256355 5.09296567 7.80661482 3.45785248 4 2 C2.68 2 1.36 2 0 2 C0 1.34 0 0.68 0 0 Z " fill="#273243" transform="translate(393,383)"/>
<path d="M0 0 C2.475 0.99 2.475 0.99 5 2 C5 2.33 5 2.66 5 3 C3.35 3 1.7 3 0 3 C0 9.6 0 16.2 0 23 C-0.33 23 -0.66 23 -1 23 C-1.02887512 19.35418313 -1.04675585 15.70839537 -1.0625 12.0625 C-1.07087891 11.02158203 -1.07925781 9.98066406 -1.08789062 8.90820312 C-1.09272461 7.42416992 -1.09272461 7.42416992 -1.09765625 5.91015625 C-1.10289307 4.99371338 -1.10812988 4.07727051 -1.11352539 3.13305664 C-1 1 -1 1 0 0 Z " fill="#E96762" transform="translate(216,280)"/>
<path d="M0 0 C0.66 0.33 1.32 0.66 2 1 C-0.97 3.97 -3.94 6.94 -7 10 C-7.33 9.34 -7.66 8.68 -8 8 C-7.04578192 6.85073734 -6.08647955 5.70569459 -5.125 4.5625 C-4.59132812 3.92441406 -4.05765625 3.28632813 -3.5078125 2.62890625 C-2 1 -2 1 0 0 Z " fill="#DADFD9" transform="translate(175,188)"/>
<path d="M0 0 C0.66 0.33 1.32 0.66 2 1 C-1 4 -4 7 -7 10 C-6.84518205 7.29068581 -6.51827919 5.53415961 -4.59765625 3.5546875 C-3.10228292 2.32320358 -1.5537076 1.1570163 0 0 Z " fill="#404656" transform="translate(158,395)"/>
<path d="M0 0 C0.66 0 1.32 0 2 0 C0.55746343 3.36591866 -1.33264727 5.51047079 -4 8 C-4.66 7.67 -5.32 7.34 -6 7 C-5.04882866 5.8274869 -4.08882991 4.66212985 -3.125 3.5 C-2.59132813 2.8503125 -2.05765625 2.200625 -1.5078125 1.53125 C-0.76144531 0.77328125 -0.76144531 0.77328125 0 0 Z " fill="#CBD4CF" transform="translate(402,189)"/>
</svg>
